<svg id="Camada_1" data-name="Camada 1" xmlns="http://www.w3.org/2000/svg" viewBox="0 0 120 30"><defs><style>.cls-1{fill:#fff;}</style></defs><title>MédioTech</title><path class="cls-1" d="M22,24.94V22h.8V16.09l-2.53,5.4-2.52-5.4V22h.8v2.9H14V22h.87V12.12H14V9.22h3.74l2.52,5.41,2.53-5.41h3.74v2.9h-.83V22h.86v2.9Z"/><path class="cls-1" d="M28,24.94V22h.83V12.12H28V9.22h9.17v4.17h-2.9V12.12H31.68v3.51h4v2.91h-4V22h2.54V20.77h2.9v4.17Z"/><path class="cls-1" d="M46.5,9.22l1.88,1.66V23.29L46.5,24.94h-8V22h.83V12.12h-.83V9.22h3.74V10l.93-.82ZM45.48,22V12.12H42.27V22Z"/><path class="cls-1" d="M49.78,24.94V22h.83V12.12h-.83V9.22h4.57v2.9h-.83V22h.83v2.9Z"/><path class="cls-1" d="M64.87,23.3,63,24.94H57.6L55.75,23.3V10.87L57.6,9.22H63l1.87,1.65ZM62,22V12.12H58.65V22Z"/><path class="cls-1" d="M65.85,13.88v-1.2h6.72v1.2H69.83V24.94H68.58V13.88Z"/><path class="cls-1" d="M74.34,12.68h7v1.2h-5.8v3.84h5.75v1.2H75.57v4.82h5.75v1.2h-7Z"/><path class="cls-1" d="M94.91,15l-1,.74A5.47,5.47,0,0,0,92,14.11a5.76,5.76,0,0,0-2.47-.53,5.42,5.42,0,0,0-2.71.7,5,5,0,0,0-1.94,1.89,5.27,5.27,0,0,0-.69,2.68,5,5,0,0,0,1.54,3.74,5.32,5.32,0,0,0,3.88,1.5,5.45,5.45,0,0,0,4.31-2l1,.73a6.34,6.34,0,0,1-2.29,1.81,7.3,7.3,0,0,1-3.07.64,6.37,6.37,0,0,1-5.07-2.15,6.44,6.44,0,0,1-1.56-4.36,6.05,6.05,0,0,1,1.89-4.53,6.47,6.47,0,0,1,4.73-1.84,6.85,6.85,0,0,1,3.1.68A6.08,6.08,0,0,1,94.91,15Z"/><path class="cls-1" d="M97.35,12.68h1.22v5.14h6.25V12.68H106V24.94h-1.22V19H98.57v5.92H97.35Z"/><polygon class="cls-1" points="36.23 4.75 33.73 7.68 32.44 7.68 34.24 4.75 36.23 4.75"/></svg>